<?xml version="1.0" encoding="UTF-8"?>
<svg version="1.1" xmlns="http://www.w3.org/2000/svg" width="512" height="512">
<path d="M0 0 C5.2640104 4.22246823 10.16725054 8.71181331 13.921875 14.34375 C16.19732517 14.69471987 16.19732517 14.69471987 18.83984375 14.49609375 C19.83951172 14.46515625 20.83917969 14.43421875 21.86914062 14.40234375 C22.93841797 14.36238281 24.00769531 14.32242188 25.109375 14.28125 C44.77583245 13.95599258 63.15230776 19.94118496 77.921875 33.34375 C78.59347656 33.93542969 79.26507813 34.52710938 79.95703125 35.13671875 C84.11684527 39.02402087 86.91425577 42.92769996 89.796875 47.84375 C92.19387938 51.86450506 92.19387938 51.86450506 96.0859375 54.00390625 C98.46143512 53.93720492 98.46143512 53.93720492 100.9609375 53.5859375 C116.15234521 52.34336853 133.06598979 60.14690179 144.43896484 69.60546875 C156.69085589 80.33211654 165.90716534 94.5045773 167.12451172 111.10742188 C167.63206733 122.32783275 167.92024421 133.69748982 163.921875 144.34375 C163.56996094 145.35308594 163.21804688 146.36242187 162.85546875 147.40234375 C160.22815067 154.34782818 156.86993121 159.82754537 151.921875 165.34375 C151.31472656 166.03210938 150.70757812 166.72046875 150.08203125 167.4296875 C136.81670935 181.59021517 116.96771237 188.46764753 97.87116432 189.51031876 C89.80042296 189.74642113 81.72769542 189.6990172 73.65457726 189.64793181 C70.13794106 189.6289416 66.62129383 189.62739725 63.10461426 189.62385559 C56.47166382 189.61459976 49.838865 189.59007543 43.20598078 189.55980712 C35.64350188 189.52605948 28.08101503 189.50972638 20.51847935 189.49472082 C4.98619066 189.46351857 -10.54594748 189.41088663 -26.078125 189.34375 C-26.22471746 190.11970709 -26.37130993 190.89566418 -26.52234459 191.69513512 C-27.09290737 194.41419655 -27.9519373 196.67893346 -29.06494141 199.22119141 C-29.47743637 200.17015793 -29.88993134 201.11912445 -30.31492615 202.09684753 C-30.76529739 203.11934097 -31.21566864 204.14183441 -31.6796875 205.1953125 C-32.1486293 206.27069778 -32.61757111 207.34608307 -33.10072327 208.45405579 C-34.10787729 210.76235485 -35.1172135 213.06970278 -36.12850952 215.37619019 C-37.70909207 218.98236416 -39.28292846 222.59140964 -40.85473633 226.20141602 C-44.75242946 235.15146097 -48.65779494 244.09814322 -52.57080078 253.04150391 C-54.33177597 257.0676792 -56.08469822 261.0972587 -57.83099365 265.12982178 C-58.4432583 266.53919398 -59.05874249 267.94717292 -59.67779541 269.35357666 C-67.32868299 286.7372368 -73.84011822 304.81470598 -66.88671875 323.5546875 C-61.54818453 335.10454082 -53.29476426 342.31337145 -41.7109375 347.37890625 C-30.26114816 351.41448774 -18.07341487 350.12677185 -7.078125 345.34375 C2.36879384 340.17139444 10.6951286 332.42097293 14.296875 322.08203125 C16.70134759 311.54743571 14.73489796 303.5575652 9.234375 294.59375 C4.34810215 289.83953858 -2.25011762 286.2688537 -9.140625 286.03125 C-15.5815783 286.14645404 -21.31944955 287.90573239 -26.1953125 292.21484375 C-30.51856662 296.95965999 -33.26485208 300.99105832 -33.390625 307.53125 C-32.62726491 313.53768863 -28.11170517 316.46519292 -23.64453125 320.08203125 C-21.27417061 322.17097921 -20.08601468 323.39901207 -19.078125 326.34375 C-19.15657189 330.10920079 -19.64039734 331.82394841 -22.078125 334.71875 C-26.27960902 336.99455385 -29.41591246 337.55356465 -34.078125 336.34375 C-42.71765545 331.29534967 -49.23243127 324.16060332 -52.015625 314.53125 C-54.23913434 304.02252132 -52.4413245 295.27049104 -46.76171875 286.25390625 C-39.26543888 275.61204845 -29.57288403 269.36798592 -16.765625 266.90625 C-3.24511627 265.25623531 9.0005468 268.69751105 19.734375 277.09375 C28.56399085 285.36343899 34.29191239 296.58623695 35.16015625 308.65625 C35.50112492 325.59700922 29.97234764 338.66205026 18.38671875 350.9609375 C6.80297205 362.15917124 -7.09402009 367.99025725 -23.078125 369.34375 C-23.8309375 369.41464844 -24.58375 369.48554688 -25.359375 369.55859375 C-40.76960891 370.27735466 -56.50832687 364.31969945 -68.10839844 354.31030273 C-81.54759315 341.99532364 -90.29986591 327.02389515 -91.46484375 308.53125 C-91.51715102 306.84413825 -91.55506095 305.15651484 -91.578125 303.46875 C-91.59657471 302.71609863 -91.61502441 301.96344727 -91.6340332 301.18798828 C-91.46807225 285.4627771 -85.28940672 271.1390236 -79.015625 257.03125 C-78.2279034 255.2312549 -77.44163882 253.43062156 -76.65673828 251.62939453 C-75.0044442 247.84197374 -73.34487991 244.05786063 -71.68017578 240.27587891 C-67.64775979 231.10141242 -63.69608516 221.89197954 -59.73245239 212.68765259 C-57.69273759 207.95413824 -55.64733628 203.22308566 -53.6015625 198.4921875 C-52.43882812 195.80320312 -51.27609375 193.11421875 -50.078125 190.34375 C-56.678125 190.34375 -63.278125 190.34375 -70.078125 190.34375 C-72.05730311 194.92052907 -72.05730311 194.92052907 -74.03625488 199.49740601 C-75.77226994 203.51264714 -77.50935859 207.52741956 -79.24804688 211.54150391 C-82.63270548 219.35826743 -86.01235399 227.17688523 -89.35498047 235.01173401 C-90.75629517 238.29534384 -92.16242243 241.57688331 -93.56884766 244.85830688 C-94.23106791 246.4070717 -94.89097825 247.95682664 -95.54833984 249.50765991 C-107.40673057 277.4754545 -107.40673057 277.4754545 -115.578125 285.84375 C-116.04968018 286.3274707 -116.52123535 286.81119141 -117.00708008 287.30957031 C-118.34777162 288.67057191 -119.712148 290.00812805 -121.078125 291.34375 C-121.71105469 292.00890625 -122.34398437 292.6740625 -122.99609375 293.359375 C-134.06835168 304.2116543 -150.38006419 309.31305456 -165.515625 309.71875 C-185.0242732 309.25712561 -201.65391623 302.2492406 -215.328125 288.28125 C-220.5351923 282.07407792 -223.88814737 274.73435262 -227.078125 267.34375 C-227.65626953 266.00570312 -227.65626953 266.00570312 -228.24609375 264.640625 C-233.23591581 250.11626031 -231.0909689 232.60034965 -224.98046875 218.87890625 C-218.87963129 206.78063535 -208.99150979 198.98979837 -196.328125 194.40625 C-183.95587613 191.2287864 -170.3973338 192.68222385 -159.26171875 198.921875 C-148.52838255 206.02411237 -141.40659795 216.06519987 -138.640625 228.78125 C-136.97472247 240.70018149 -138.98208578 251.62571599 -145.765625 261.59375 C-150.66400993 267.7043615 -157.3249343 272.05155155 -165.078125 273.34375 C-173.13201789 273.81933289 -181.4879666 274.28615923 -188.515625 269.78125 C-190.84521238 266.14709369 -191.39354073 262.63340396 -191.078125 258.34375 C-189.10878611 255.06151852 -187.68773535 254.50548336 -184.015625 253.53125 C-180.66480941 253.37168735 -177.82236045 253.56888661 -174.515625 253.96875 C-169.78861625 254.45440158 -167.00534789 254.31311365 -163.078125 251.34375 C-158.36569583 245.35769133 -157.21531315 239.8214527 -158.078125 232.34375 C-160.00625774 225.97252876 -163.25629252 219.62806367 -169.1171875 216.125 C-176.32984402 212.65499343 -182.97130543 211.45325591 -190.78125 213.5 C-198.85765663 216.46684325 -204.3119298 221.66650593 -208.078125 229.34375 C-212.69284338 241.3000658 -212.01375281 253.01154164 -207.046875 264.7890625 C-201.21687653 276.09453251 -192.86116498 283.4992615 -180.953125 287.65625 C-169.65834767 290.85534878 -158.72034461 290.45548099 -148.078125 285.34375 C-126.26895084 272.63880828 -118.76786199 246.36194655 -109.328125 224.40625 C-107.78333575 220.82549907 -106.23727512 217.24529902 -104.69110107 213.66514587 C-103.73722677 211.45514728 -102.78440101 209.2446957 -101.83282471 207.03370667 C-99.28633538 201.11953982 -96.71029528 195.22031601 -94.078125 189.34375 C-95.71056152 189.36731567 -95.71056152 189.36731567 -97.37597656 189.39135742 C-101.46867273 189.44624218 -105.56133737 189.48030983 -109.65429688 189.50854492 C-111.41542049 189.52349968 -113.17650774 189.54387096 -114.9375 189.57006836 C-135.76403532 189.87181646 -152.27078753 185.63380377 -168.078125 171.34375 C-168.78582031 170.71726563 -169.49351562 170.09078125 -170.22265625 169.4453125 C-182.79006217 157.67087865 -189.50254582 141.31570499 -191.078125 124.34375 C-191.5357974 107.11696087 -185.28696721 90.63977894 -173.640625 77.96875 C-171.81810657 76.05698294 -169.95889753 74.1999194 -168.078125 72.34375 C-167.3975 71.66441406 -166.716875 70.98507813 -166.015625 70.28515625 C-156.79698355 61.6618854 -143.94882308 54.34375 -131.078125 54.34375 C-131.06394531 53.78429687 -131.04976563 53.22484375 -131.03515625 52.6484375 C-129.89291865 33.44649733 -118.96405725 16.56168588 -105.328125 3.65625 C-74.85907734 -22.66863044 -32.06272761 -23.28934444 0 0 Z M-63.078125 121.34375 C-64.55438754 123.88540945 -65.75649764 126.25140681 -66.9140625 128.9296875 C-67.25295502 129.68180511 -67.59184753 130.43392273 -67.94100952 131.20883179 C-69.00345143 133.58012486 -70.04276399 135.96052385 -71.078125 138.34375 C-71.7280207 139.82071257 -72.37808173 141.29760241 -73.02832031 142.77441406 C-74.62683273 146.4260392 -76.19932662 150.08823527 -77.76074219 153.75585938 C-78.70658052 155.9768642 -79.65762412 158.1955858 -80.609375 160.4140625 C-84.57080262 169.67168835 -88.37178684 178.9809696 -92.078125 188.34375 C-85.148125 188.34375 -78.218125 188.34375 -71.078125 188.34375 C-67.72779245 181.76314612 -64.60908866 175.15078838 -61.72265625 168.35546875 C-61.33494553 167.44924271 -60.9472348 166.54301666 -60.54777527 165.60932922 C-59.32586983 162.75117913 -58.10824835 159.89122653 -56.890625 157.03125 C-56.06341806 155.09558899 -55.23594626 153.16004115 -54.40820312 151.22460938 C-51.23167089 143.78906186 -51.23167089 143.78906186 -48.078125 136.34375 C-47.67553467 135.39733643 -47.27294434 134.45092285 -46.8581543 133.47583008 C-45.66666287 130.21908683 -45.65604893 127.78065513 -46.078125 124.34375 C-47.44525749 121.56065886 -48.63226085 120.47737618 -51.078125 118.34375 C-56.11481534 117.53428191 -59.07461638 118.26454552 -63.078125 121.34375 Z M-24.078125 136.34375 C-28.25263477 141.70678316 -30.87882259 148.02673151 -33.50390625 154.2421875 C-33.89636032 155.15835846 -34.28881439 156.07452942 -34.69316101 157.01846313 C-35.51386011 158.93820327 -36.33135069 160.85931799 -37.14575195 162.78173828 C-38.39719003 165.73423879 -39.65970645 168.68181708 -40.92382812 171.62890625 C-41.72200481 173.49972254 -42.51955368 175.37080684 -43.31640625 177.2421875 C-43.69444901 178.12546722 -44.07249176 179.00874695 -44.46199036 179.91879272 C-44.80622543 180.73369171 -45.15046051 181.5485907 -45.50512695 182.38818359 C-45.809814 183.10573822 -46.11450104 183.82329285 -46.42842102 184.56259155 C-47.19235141 186.34090853 -47.19235141 186.34090853 -47.078125 188.34375 C-40.148125 188.34375 -33.218125 188.34375 -26.078125 188.34375 C-23.99647641 183.62995534 -21.91506144 178.91605889 -19.83422852 174.2019043 C-19.12733237 172.60060767 -18.42030323 170.99936974 -17.71313477 169.39819336 C-16.69251494 167.08723388 -15.67238486 164.77605872 -14.65234375 162.46484375 C-14.33972092 161.75726425 -14.02709808 161.04968475 -13.70500183 160.32066345 C-13.11043101 158.97299953 -12.51771621 157.62451484 -11.92709351 156.27511597 C-11.35931304 154.98344041 -10.78423697 153.69494817 -10.20205688 152.40969849 C-8.29040534 148.12421998 -7.5540784 145.06016937 -8.078125 140.34375 C-9.39660857 137.37716197 -10.36475875 135.8118966 -13.078125 134.03125 C-17.52434503 132.50286186 -20.28076429 133.91343915 -24.078125 136.34375 Z " fill="#000000" transform="translate(272.078125,77.65625)"/>
<path d="M0 0 C12.89903846 14.9442122 25.49469128 40.7632744 24.44921875 60.8828125 C23.22130749 69.40344887 19.60178152 76.3947138 13 82 C3.58345409 87.75296574 -5.94155628 89.90057635 -16.8984375 87.31640625 C-25.74213958 84.03743363 -31.84704992 78.46144136 -36 70 C-41.56845523 55.63924704 -35.93585482 41.77420604 -30.06689453 28.46289062 C-27.37674099 22.58477155 -24.38684094 16.87254606 -21.3125 11.1875 C-20.84900146 10.32116943 -20.38550293 9.45483887 -19.90795898 8.56225586 C-19.46009033 7.75151611 -19.01222168 6.94077637 -18.55078125 6.10546875 C-18.15544189 5.38512451 -17.76010254 4.66478027 -17.3527832 3.92260742 C-15.3958551 1.14137501 -13.1963573 -0.5763871 -9.9921875 -1.7109375 C-6.33512931 -2.24156947 -3.23370772 -1.67131464 0 0 Z " fill="#000000" transform="translate(437,309)"/>
<path d="M0 0 C6.29553384 4.06895807 9.08890603 9.85247262 12.5 16.375 C13.06952393 17.44613037 13.63904785 18.51726074 14.22583008 19.62084961 C21.98468961 34.41984622 30.94225636 51.6331173 26.2421875 68.76171875 C25.29537263 70.95728551 24.23739289 72.95636158 23 75 C22.1646875 76.5778125 22.1646875 76.5778125 21.3125 78.1875 C15.37112373 85.41349817 7.0923297 89.03102896 -2.05859375 90.28125 C-10.34921557 90.68160196 -17.90937294 87.81099893 -24.25390625 82.58984375 C-30.48205159 76.91902685 -34.23740692 70.56153745 -35.38671875 62.1796875 C-36.14697302 42.51793904 -24.00522498 18.09883532 -12 3 C-7.84685579 0.04853725 -5.11778859 -0.71828612 0 0 Z " fill="#000000" transform="translate(352,276)"/>
<path d="M0 0 C1.13888672 -0.05607422 1.13888672 -0.05607422 2.30078125 -0.11328125 C5.76419983 0.50457902 7.19164951 1.82829422 9.6875 4.3125 C11.51838098 6.97796642 13.04554371 9.77163462 14.5625 12.625 C14.99449707 13.42244629 15.42649414 14.21989258 15.87158203 15.04150391 C35.0571773 50.82851223 35.0571773 50.82851223 30.625 68.3125 C27.63310015 77.23279399 22.07754732 82.65042593 14.01953125 87.21875 C6.9140186 90.55131875 -2.45621553 90.47744685 -10.015625 88.6640625 C-18.43724091 85.21885599 -25.58120045 78.63269617 -29.3125 70.3125 C-34.7822827 53.65701169 -26.72998005 37.73865253 -19.4375 23 C-18.94403076 21.9982373 -18.45056152 20.99647461 -17.94213867 19.96435547 C-7.94999255 0.25386531 -7.94999255 0.25386531 0 0 Z " fill="#000000" transform="translate(368.3125,375.6875)"/>
</svg>
