<?xml version="1.0" encoding="UTF-8"?>
<svg version="1.1" xmlns="http://www.w3.org/2000/svg" width="512" height="512">
<path d="M0 0 C0.63550781 0.46792969 1.27101563 0.93585937 1.92578125 1.41796875 C19.4385484 15.00185735 29.85838097 38.58699135 33 60 C34.60006672 86.12412374 30.87179363 112.66019009 13.28515625 133.30859375 C10.6157805 136.29985805 7.82617836 139.15694893 5 142 C3.95199219 143.08667969 3.95199219 143.08667969 2.8828125 144.1953125 C-2.7008427 149.92275281 -2.7008427 149.92275281 -6 152 C-6.66 152 -7.32 152 -8 152 C-4.83712457 155.26830461 -1.53821879 158.30512125 1.875 161.3125 C18.76908364 176.53464331 30.46034344 197.18804065 33 220 C34.47521812 252.18372373 27.66366718 276.59941982 6.17578125 301.078125 C-8.63247385 316.84876146 -31.97163224 328.34078594 -53.78040349 329.09632361 C-57.25301269 329.13792829 -60.72444874 329.14768484 -64.1973114 329.14717102 C-65.54615932 329.15047415 -66.89500626 329.15420066 -68.24385196 329.1583125 C-71.94054354 329.16829006 -75.6372189 329.17204244 -79.33392203 329.17470181 C-83.32536415 329.17861766 -87.31679357 329.18819525 -91.30822754 329.19691467 C-100.9443474 329.2166457 -110.58046825 329.22674222 -120.21660325 329.23564246 C-124.76215302 329.24003193 -129.30770164 329.24539713 -133.8532505 329.25063133 C-148.97799659 329.26764224 -164.10274197 329.28213345 -179.22749615 329.28938007 C-183.14946684 329.29128976 -187.07143753 329.29321012 -190.9934082 329.29516602 C-191.96811574 329.29564976 -192.94282328 329.2961335 -193.94706742 329.2966319 C-209.71470535 329.30492114 -225.48226714 329.33023996 -241.24987187 329.36274669 C-257.46360949 329.39589864 -273.67730853 329.41383627 -289.8910802 329.41702431 C-298.9840672 329.41918218 -308.07694327 329.42782393 -317.16989708 329.45348549 C-324.91877699 329.47530415 -332.667519 329.48318857 -340.41642614 329.47351871 C-344.36225455 329.46900572 -348.30779914 329.47068239 -352.25358772 329.49028015 C-374.50916288 329.59454349 -394.55667242 328.37293359 -415 319 C-416.31291016 318.43345703 -416.31291016 318.43345703 -417.65234375 317.85546875 C-443.11310909 306.17735434 -463.04224392 282.72113099 -472.75390625 256.75 C-483.0905038 225.64299797 -481.08954228 194.43594867 -467.25 164.875 C-452.75052096 136.94162044 -427.98123942 118.27933312 -398.45947266 108.55664062 C-394.34249488 107.3455873 -390.45014065 106.83178857 -386.1640625 106.59375 C-376.13206303 106.50848472 -376.13206303 106.50848472 -367.35693359 102.55126953 C-364.68783196 98.78453499 -363.31676826 94.52469778 -361.84863281 90.18408203 C-360.42624183 86.5233485 -358.28927355 83.40330372 -356.0625 80.1875 C-355.63501465 79.56327148 -355.2075293 78.93904297 -354.76708984 78.29589844 C-330.33774655 43.1258275 -293.25651067 18.71551767 -251 11 C-217.15553807 5.01416079 -183.75808762 10.59739132 -152.61328125 24.4609375 C-149.34789515 26.13062589 -149.34789515 26.13062589 -147 26 C-145.91408387 24.41775101 -144.9075854 22.78079588 -143.9375 21.125 C-131.4624438 1.02057059 -110.91482174 -13.75761793 -88.15234375 -20.06640625 C-84.77675453 -20.81372921 -81.41266588 -21.44957002 -78 -22 C-76.700625 -22.226875 -75.40125 -22.45375 -74.0625 -22.6875 C-46.33261672 -25.44873838 -21.70165037 -17.1295855 0 0 Z " fill="#E2F1FC" transform="translate(479,23)"/>
<path d="M0 0 C0.63550781 0.46792969 1.27101563 0.93585937 1.92578125 1.41796875 C19.4385484 15.00185735 29.85838097 38.58699135 33 60 C34.60006672 86.12412374 30.87179363 112.66019009 13.28515625 133.30859375 C10.6157805 136.29985805 7.82617836 139.15694893 5 142 C3.95199219 143.08667969 3.95199219 143.08667969 2.8828125 144.1953125 C-2.7008427 149.92275281 -2.7008427 149.92275281 -6 152 C-6.66 152 -7.32 152 -8 152 C-4.83712457 155.26830461 -1.53821879 158.30512125 1.875 161.3125 C18.76908364 176.53464331 30.46034344 197.18804065 33 220 C34.47521812 252.18372373 27.66366718 276.59941982 6.17578125 301.078125 C-8.63247385 316.84876146 -31.97163224 328.34078594 -53.78040349 329.09632361 C-57.25301269 329.13792829 -60.72444874 329.14768484 -64.1973114 329.14717102 C-65.54615932 329.15047415 -66.89500626 329.15420066 -68.24385196 329.1583125 C-71.94054354 329.16829006 -75.6372189 329.17204244 -79.33392203 329.17470181 C-83.32536415 329.17861766 -87.31679357 329.18819525 -91.30822754 329.19691467 C-100.9443474 329.2166457 -110.58046825 329.22674222 -120.21660325 329.23564246 C-124.76215302 329.24003193 -129.30770164 329.24539713 -133.8532505 329.25063133 C-148.97799659 329.26764224 -164.10274197 329.28213345 -179.22749615 329.28938007 C-183.14946684 329.29128976 -187.07143753 329.29321012 -190.9934082 329.29516602 C-191.96811574 329.29564976 -192.94282328 329.2961335 -193.94706742 329.2966319 C-209.71470535 329.30492114 -225.48226714 329.33023996 -241.24987187 329.36274669 C-257.46360949 329.39589864 -273.67730853 329.41383627 -289.8910802 329.41702431 C-298.9840672 329.41918218 -308.07694327 329.42782393 -317.16989708 329.45348549 C-324.91877699 329.47530415 -332.667519 329.48318857 -340.41642614 329.47351871 C-344.36225455 329.46900572 -348.30779914 329.47068239 -352.25358772 329.49028015 C-374.50916288 329.59454349 -394.55667242 328.37293359 -415 319 C-416.31291016 318.43345703 -416.31291016 318.43345703 -417.65234375 317.85546875 C-443.11310909 306.17735434 -463.04224392 282.72113099 -472.75390625 256.75 C-483.0905038 225.64299797 -481.08954228 194.43594867 -467.25 164.875 C-452.75052096 136.94162044 -427.98123942 118.27933312 -398.45947266 108.55664062 C-394.34249488 107.3455873 -390.45014065 106.83178857 -386.1640625 106.59375 C-376.13206303 106.50848472 -376.13206303 106.50848472 -367.35693359 102.55126953 C-364.68783196 98.78453499 -363.31676826 94.52469778 -361.84863281 90.18408203 C-360.42624183 86.5233485 -358.28927355 83.40330372 -356.0625 80.1875 C-355.63501465 79.56327148 -355.2075293 78.93904297 -354.76708984 78.29589844 C-330.33774655 43.1258275 -293.25651067 18.71551767 -251 11 C-217.15553807 5.01416079 -183.75808762 10.59739132 -152.61328125 24.4609375 C-149.34789515 26.13062589 -149.34789515 26.13062589 -147 26 C-145.91408387 24.41775101 -144.9075854 22.78079588 -143.9375 21.125 C-131.4624438 1.02057059 -110.91482174 -13.75761793 -88.15234375 -20.06640625 C-84.77675453 -20.81372921 -81.41266588 -21.44957002 -78 -22 C-76.700625 -22.226875 -75.40125 -22.45375 -74.0625 -22.6875 C-46.33261672 -25.44873838 -21.70165037 -17.1295855 0 0 Z M-312 78 C-313.10214844 78.99 -313.10214844 78.99 -314.2265625 80 C-326.23928207 91.2062119 -335.48799026 106.71988861 -341.61328125 121.91015625 C-341.87004639 122.54421387 -342.12681152 123.17827148 -342.39135742 123.83154297 C-343.07856758 125.57003601 -343.73196712 127.32178725 -344.3828125 129.07421875 C-346.6347192 133.14832048 -349.58986167 135.28791368 -354.0625 136.609375 C-354.701875 136.65578125 -355.34125 136.7021875 -356 136.75 C-356.7734375 136.81058594 -357.546875 136.87117188 -358.34375 136.93359375 C-360.25983391 136.98149585 -362.17787511 136.96579403 -364.09375 136.91015625 C-386.97582436 136.25413348 -407.00720252 145.65128496 -423.625 161.125 C-438.46297858 176.54798849 -446.76781231 197.78095559 -446.53833008 219.12280273 C-445.75679727 237.40909556 -438.36433709 256.43499381 -426 270 C-425.27296875 270.81855469 -424.5459375 271.63710938 -423.796875 272.48046875 C-409.84382756 287.35621771 -389.79829034 296.5366704 -369.43350792 297.36874199 C-361.98290583 297.54717619 -354.53346835 297.53797826 -347.08135688 297.50823963 C-343.16385202 297.49702749 -339.24640432 297.50910568 -335.3289032 297.51808167 C-327.67650105 297.53194517 -320.024265 297.52451017 -312.3718709 297.50940608 C-303.4481428 297.49246865 -294.52445519 297.49576577 -285.60071597 297.49950016 C-269.67510212 297.50536568 -253.74956757 297.49125642 -237.82397461 297.46655273 C-222.39067618 297.44261561 -206.95748359 297.43555802 -191.52416992 297.44604492 C-174.68705002 297.45746533 -157.84997896 297.45937188 -141.01285964 297.44494683 C-139.21631961 297.44342109 -137.41977956 297.44190073 -135.62323952 297.44038582 C-134.73946365 297.439628 -133.85568778 297.43887019 -132.94513082 297.43808941 C-126.73243767 297.43335685 -120.51976641 297.43519057 -114.30707359 297.43945122 C-106.73455191 297.44438778 -99.16213009 297.43834886 -91.58963122 297.41855692 C-87.72997651 297.4087159 -83.87047355 297.40354525 -80.01081085 297.41144943 C-75.82023082 297.41985555 -71.63005211 297.40486829 -67.4394989 297.38768005 C-66.22956872 297.3936901 -65.01963854 297.39970014 -63.77304381 297.40589231 C-45.53659967 297.27012785 -29.54963214 290.03927417 -16.25 277.6875 C-3.29808236 263.96094613 1.80916915 245.78902292 1.30859375 227.3125 C0.44603667 211.1923462 -7.80712996 196.30731577 -19.4140625 185.37695312 C-34.81119939 172.0087493 -52.11179741 168.06228869 -72 169 C-72.66 169.33 -73.32 169.66 -74 170 C-79.68331608 170.59106487 -84.14777003 170.27243416 -89 167 C-94.99278324 161.69210628 -95.50075573 152.79001423 -96.86328125 145.296875 C-101.02558488 122.65297884 -110.2893268 103.67145845 -125 86 C-126.11181641 84.65808594 -126.11181641 84.65808594 -127.24609375 83.2890625 C-140.97671218 67.38014632 -158.67174383 56.67976045 -178 49 C-179.04800781 48.57847656 -180.09601563 48.15695313 -181.17578125 47.72265625 C-226.778888 31.00782459 -277.81677469 45.33343656 -312 78 Z " fill="#020202" transform="translate(479,23)"/>
<path d="M0 0 C13.41076271 10.94510679 23.88720046 25.26148595 26.32470703 42.74707031 C27.86565703 60.3364508 24.02392353 77.30979107 13.15283203 91.60253906 C10.96507211 94.09583097 8.70467783 96.43758646 6.32470703 98.74707031 C5.68791016 99.39289063 5.05111328 100.03871094 4.39501953 100.70410156 C-7.87881254 112.39225285 -24.24787836 116.14450776 -40.67529297 115.74707031 C-40.86526855 115.06942627 -41.05524414 114.39178223 -41.25097656 113.69360352 C-50.85228205 79.90099686 -66.67006652 48.15125147 -94.67529297 25.74707031 C-92.03993491 13.28402284 -80.22172171 3.39490998 -70.15576172 -3.27246094 C-49.25571493 -15.75781729 -19.5383825 -14.61250058 0 0 Z " fill="#FDC007" transform="translate(453.67529296875,44.2529296875)"/>
<path d="M0 0 C14.10884724 4.86511974 23.65431167 27.77049065 30.0378418 40.50878906 C38.86750262 58.88085846 46.58723741 77.842588 40 98 C33.92498975 111.09188254 24.33603661 120.59438955 10.75 125.875 C-3.88797534 130.09850184 -17.63012586 128.07137984 -30.76171875 120.91796875 C-41.66775947 114.45854053 -48.23991833 105.0358595 -52 93 C-57.6139017 70.9995744 -44.24765137 45.42112865 -33.45068359 26.62719727 C-16.73814407 -1.51318409 -16.73814407 -1.51318409 0 0 Z " fill="#000204" transform="translate(262,384)"/>
<path d="M0 0 C15.64954402 6.62096093 26.59064505 33.65199454 32.96679688 48.44824219 C39.54044467 64.68353678 45.71401509 80.96860628 39.26953125 98.20703125 C36.29387265 104.75348018 32.34218248 110.17900606 27 115 C26.47664063 115.49242187 25.95328125 115.98484375 25.4140625 116.4921875 C16.6244765 124.48633585 5.86698029 127.81234145 -6 128.375 C-20.81950662 127.61339795 -32.64364288 122.39359589 -42.7734375 111.63671875 C-50.70452163 102.24464543 -54.79942862 91.70519573 -54.40234375 79.33203125 C-51.54946128 55.70573273 -38.22533447 31.40684003 -24.75 12.1875 C-24.16810913 11.35230835 -24.16810913 11.35230835 -23.57446289 10.50024414 C-16.98629624 1.45599333 -11.03943951 -0.97321375 0 0 Z " fill="#000204" transform="translate(119,384)"/>
<path d="M0 0 C6.53921797 5.94474361 11.51760449 12.74366426 16.125 20.25 C16.96526733 21.61765503 16.96526733 21.61765503 17.82250977 23.01293945 C26.60293966 37.61262031 32.95949532 53.17553268 37.75 69.5 C38.04003906 70.46421875 38.33007812 71.4284375 38.62890625 72.421875 C41.44956291 83.56258183 37.54011799 95.05679942 31.875 104.6875 C31.17375 105.615625 30.4725 106.54375 29.75 107.5 C29.12158203 108.34498047 29.12158203 108.34498047 28.48046875 109.20703125 C21.00185254 118.66346331 9.64450525 124.41030801 -2.1640625 126.24609375 C-16.54606522 127.42942309 -28.2855249 124.50204423 -39.67578125 115.6953125 C-49.71837743 107.13091333 -55.90311311 96.78794379 -57.25 83.5 C-57.58662672 77.21630129 -56.63004338 72.16891756 -54.75 66.1875 C-54.34624146 64.88534546 -54.34624146 64.88534546 -53.93432617 63.55688477 C-47.71795115 44.06079403 -38.63539977 26.30154339 -26.875 9.5625 C-26.4826416 9.00135498 -26.0902832 8.44020996 -25.68603516 7.86206055 C-19.37452151 -0.81526313 -10.23073444 -4.72187744 0 0 Z " fill="#000204" transform="translate(409.25,385.5)"/>
<path d="M0 0 C0.66 0 1.32 0 2 0 C6.5055672 7.38444911 10.62109223 14.86826598 14.0625 22.8125 C14.37324463 23.4923999 14.68398926 24.1722998 15.00415039 24.87280273 C17.57726475 31.04008494 17.3546533 36.61336674 14.875 42.8125 C11.54578439 46.69658488 8.32880275 48.56269874 3.37890625 49.4921875 C-2.01654623 49.86635203 -5.35136672 49.31922553 -9.5625 45.8125 C-12.23487622 43.07440961 -14.3412905 40.85815567 -15 37 C-13.85023644 23.33218566 -6.99175898 11.51688218 0 0 Z " fill="#2093EE" transform="translate(112,430)"/>
<path d="M0 0 C5.39987048 1.79995683 7.4568788 8.04851857 9.97900391 12.91503906 C11.66397054 16.35588437 13.12474136 19.86283722 14.5 23.4375 C14.88248901 24.4111853 14.88248901 24.4111853 15.27270508 25.40454102 C17.07134078 30.32476545 17.91761112 34.97359313 16.37109375 40.07421875 C13.84085545 44.44655523 10.92215958 47.42154655 6 49 C0.98437181 49.77102367 -2.77634701 49.58916625 -7.375 47.375 C-11.57504354 43.5749606 -14.19564564 40.37294513 -14.6875 34.625 C-14.18357466 22.65677323 -5.75809382 10.22105407 0 0 Z " fill="#2093EF" transform="translate(399,430)"/>
<path d="M0 0 C5.11647521 4.34348255 7.47777265 9.46584046 10.25 15.5 C10.69601562 16.43714844 11.14203125 17.37429688 11.6015625 18.33984375 C14.75307213 25.07261433 17.08671917 31.40785239 16 39 C13.30455136 44.10209922 10.4785689 47.17381037 5 49 C-0.08818127 49.62267953 -4.55586621 49.78986086 -8.9375 46.875 C-11.99400834 44.30868639 -13.70056585 41.82186515 -15 38 C-15.37001779 32.6444793 -14.43932868 28.37748457 -12.5 23.4375 C-12.10711792 22.41064087 -12.10711792 22.41064087 -11.70629883 21.36303711 C-5.33550836 5.33550836 -5.33550836 5.33550836 0 0 Z " fill="#2093EF" transform="translate(256,430)"/>
<path d="M0 0 C18.03002962 8.36528401 31.04299573 27.96541398 37.76660156 46.06347656 C46.2167936 70.36752033 45.72248639 97.70141727 34.88427734 121.19775391 C26.16809752 138.96220435 13.4084753 152.33971668 -3 163 C-3.75410156 163.49242187 -4.50820313 163.98484375 -5.28515625 164.4921875 C-7.125 165.625 -7.125 165.625 -10 167 C-10.99 166.67 -11.98 166.34 -13 166 C-12.03320312 165.45472656 -11.06640625 164.90945313 -10.0703125 164.34765625 C-1.87179321 159.63324387 5.24042577 154.69356276 12 148 C13.299375 146.7934375 13.299375 146.7934375 14.625 145.5625 C33.79389361 124.88027268 40.95527719 101.48206003 40.3359375 73.640625 C39.29993636 47.70385889 27.1666071 26.48844422 8.89453125 8.59375 C6.790875 6.70869231 4.97882617 5.26987178 2.63671875 3.78125 C1.76660156 3.1934375 0.89648438 2.605625 0 2 C0 1.34 0 0.68 0 0 Z " fill="#D2E0EA" transform="translate(469,176)"/>
<path d="M0 0 C8.02192807 3.72188555 15.32784682 10.27687566 21 17 C21 17.66 21 18.32 21 19 C16.44706682 17.18310178 13.53305224 13.6408518 10.2421875 10.1640625 C7.86259928 7.70426344 5.5300014 5.59916119 2.6484375 3.7734375 C1.77445312 3.18820313 0.90046875 2.60296875 0 2 C0 1.34 0 0.68 0 0 Z " fill="#CDDAE4" transform="translate(469,176)"/>
<path d="M0 0 C0 3.80265537 -1.22588859 5.36899649 -3.25 8.5625 C-4.15492188 10.01849609 -4.15492188 10.01849609 -5.078125 11.50390625 C-6.96641106 13.95637535 -8.14519218 14.93260504 -11 16 C-8.84764897 12.17359817 -6.65670509 8.37593358 -4.375 4.625 C-3.97023438 3.95726562 -3.56546875 3.28953125 -3.1484375 2.6015625 C-2 1 -2 1 0 0 Z " fill="#D6E5EF" transform="translate(500,301)"/>
<path d="M0 0 C0.99 0 1.98 0 3 0 C4.66251802 5.57432514 5.18609365 9.3067505 4 15 C3.67 15 3.34 15 3 15 C2.01 10.05 1.02 5.1 0 0 Z " fill="#CCDAE4" transform="translate(506,228)"/>
<path d="M0 0 C0.66 0.33 1.32 0.66 2 1 C-2.62 5.62 -7.24 10.24 -12 15 C-12.66 14.67 -13.32 14.34 -14 14 C-10.12814498 9.03918575 -5.79125711 5.06361292 -1 1 C-0.67 0.67 -0.34 0.34 0 0 Z " fill="#363A3C" transform="translate(41,152)"/>
<path d="M0 0 C-1.40844718 3.21524305 -3.10344786 5.32183868 -5.625 7.75 C-6.57246094 8.67039062 -6.57246094 8.67039062 -7.5390625 9.609375 C-8.02117187 10.06828125 -8.50328125 10.5271875 -9 11 C-9 7.25983417 -8.0658409 6.54723807 -5.625 3.8125 C-4.99851562 3.09707031 -4.37203125 2.38164062 -3.7265625 1.64453125 C-2 0 -2 0 0 0 Z " fill="#061C2E" transform="translate(105,386)"/>
<path d="M0 0 C0.33 0 0.66 0 1 0 C0.91291331 1.45945288 0.80473093 2.91765868 0.6875 4.375 C0.62949219 5.18710937 0.57148438 5.99921875 0.51171875 6.8359375 C0 9 0 9 -3 11 C-2.25 3.375 -2.25 3.375 0 0 Z " fill="#CDDBE5" transform="translate(510,271)"/>
<path d="M0 0 C1 3 1 3 -0.4375 6.1875 C-1.2109375 7.5796875 -1.2109375 7.5796875 -2 9 C-2.6875 7.3125 -2.6875 7.3125 -3 5 C-1.5625 2.25 -1.5625 2.25 0 0 Z " fill="#DDEBF6" transform="translate(508,281)"/>
</svg>
